<svg width="314" height="54" viewBox="0 0 314 54" fill="none" xmlns="http://www.w3.org/2000/svg">
<path d="M72.5265 13.2821H62.0359V5.3523H92.496V13.2821H81.9521V42.5534H72.5265V13.2821Z" fill="#F5F5F5"/>
<path d="M104.295 43.3517C99.289 43.3517 95.3483 42.1808 92.4727 39.8391C89.6326 37.4974 88.2126 34.18 88.2126 29.8869C88.2126 25.6648 89.4729 22.3296 91.9935 19.8815C94.5495 17.4333 98.2239 16.2093 103.017 16.2093C106.07 16.2093 108.679 16.7947 110.845 17.9655C113.046 19.1009 114.697 20.6798 115.797 22.7022C116.933 24.689 117.501 26.942 117.501 29.4611V32.9205H97.1056C97.4606 34.3397 98.3482 35.3686 99.7682 36.0073C101.188 36.6459 103.123 36.9652 105.573 36.9652C107.241 36.9652 108.945 36.8233 110.685 36.5395C112.46 36.2556 113.987 35.8653 115.265 35.3686V41.5422C113.951 42.0744 112.3 42.5001 110.312 42.8195C108.36 43.1743 106.354 43.3517 104.295 43.3517ZM108.661 27.0662C108.519 25.6825 107.951 24.6003 106.957 23.8198C105.963 23.0392 104.596 22.6489 102.857 22.6489C101.153 22.6489 99.8037 23.057 98.8097 23.873C97.8157 24.6536 97.2476 25.718 97.1056 27.0662H108.661Z" fill="#F5F5F5"/>
<path d="M135.373 43.3517C130.687 43.3517 126.977 42.1808 124.243 39.8391C121.51 37.4974 120.143 34.1623 120.143 29.8337C120.143 25.5051 121.51 22.1522 124.243 19.775C127.012 17.3979 130.74 16.2093 135.426 16.2093C137.521 16.2093 139.473 16.4221 141.284 16.8479C143.13 17.2382 144.657 17.8059 145.864 18.551V25.8422C143.698 24.281 140.84 23.5005 137.29 23.5005C135.018 23.5005 133.19 24.0327 131.805 25.0971C130.456 26.126 129.782 27.7049 129.782 29.8337C129.782 31.998 130.456 33.5946 131.805 34.6235C133.154 35.617 134.965 36.1137 137.237 36.1137C140.68 36.1137 143.663 35.2976 146.183 33.6656V40.9035C143.485 42.5356 139.882 43.3517 135.373 43.3517Z" fill="#F5F5F5"/>
<path d="M149.914 3.22348H159.286V19.6154C160.422 18.48 161.718 17.6285 163.174 17.0608C164.665 16.4931 166.227 16.2093 167.86 16.2093C171.446 16.2093 174.09 17.1495 175.795 19.0299C177.534 20.8749 178.404 23.394 178.404 26.5872V42.5534H169.032V27.8113C169.032 24.9374 167.718 23.5005 165.091 23.5005C163.884 23.5005 162.783 23.7843 161.789 24.352C160.795 24.8842 159.961 25.718 159.286 26.8533V42.5534H149.914V3.22348Z" fill="#F5F5F5"/>
<path d="M194.545 43.3517C192.202 43.3517 189.877 43.121 187.569 42.6598C185.262 42.234 183.363 41.6309 181.871 40.8503V32.3883C183.789 33.3817 185.777 34.1268 187.836 34.6235C189.93 35.1202 191.918 35.3686 193.8 35.3686C195.539 35.3686 196.853 35.1025 197.741 34.5703C198.628 34.0381 199.072 33.2753 199.072 32.2818C199.072 31.5367 198.823 30.8981 198.326 30.3659C197.865 29.7982 197.173 29.2837 196.249 28.8225C195.326 28.3613 193.889 27.7226 191.936 26.9066C188.492 25.4519 185.99 23.8375 184.428 22.0635C182.866 20.2895 182.084 18.1075 182.084 15.5174C182.084 13.3886 182.67 11.4904 183.842 9.82282C185.049 8.15524 186.717 6.86021 188.847 5.93772C190.978 5.01524 193.427 4.55399 196.196 4.55399C198.468 4.55399 200.492 4.73139 202.267 5.0862C204.042 5.441 205.746 6.00869 207.379 6.78925V15.0384C204.255 13.4063 201.113 12.5903 197.954 12.5903C196.249 12.5903 194.883 12.8741 193.853 13.4418C192.859 13.974 192.362 14.7546 192.362 15.7835C192.362 16.8124 192.877 17.6462 193.906 18.2849C194.936 18.9235 196.835 19.7928 199.604 20.8927C202.125 21.9216 204.078 22.9328 205.462 23.9262C206.882 24.9197 207.912 26.0728 208.551 27.3855C209.19 28.6983 209.509 30.3659 209.509 32.3883C209.509 35.8299 208.249 38.5264 205.728 40.4778C203.243 42.3937 199.516 43.3517 194.545 43.3517Z" fill="#F5F5F5"/>
<path d="M218.744 53.091C217.608 53.091 216.067 53.091 214.736 53.091C213.405 53.091 210.33 53.2339 209.664 53.2339L209.798 45.8895C210.996 45.9959 214.608 45.853 215.921 45.853C217.093 45.853 217.998 45.5869 218.637 45.0547C219.312 44.558 219.844 43.7597 220.235 42.6598L220.874 40.9568L209.798 17.0076H219.17L225.826 33.6123L232.11 17.0076H241.482L230.939 43.7242C229.696 46.9174 228.098 49.2769 226.146 50.8025C224.229 52.3282 221.761 53.091 218.744 53.091Z" fill="#F5F5F5"/>
<path d="M244.145 17.0076H253.198V19.8283C254.298 18.6219 255.63 17.7172 257.192 17.114C258.754 16.5108 260.387 16.2093 262.091 16.2093C265.677 16.2093 268.321 17.1495 270.025 19.0299C271.765 20.8749 272.635 23.394 272.635 26.5872V42.5534H263.262V27.8113C263.262 24.9374 261.949 23.5005 259.322 23.5005C258.115 23.5005 257.014 23.7843 256.02 24.352C255.026 24.8842 254.192 25.718 253.517 26.8533V42.5534H244.145V17.0076Z" fill="#F5F5F5"/>
<path d="M291.332 43.3517C286.646 43.3517 282.936 42.1808 280.203 39.8391C277.469 37.4974 276.102 34.1623 276.102 29.8337C276.102 25.5051 277.469 22.1522 280.203 19.775C282.972 17.3979 286.7 16.2093 291.386 16.2093C293.48 16.2093 295.433 16.4221 297.243 16.8479C299.09 17.2382 300.616 17.8059 301.823 18.551V25.8422C299.658 24.281 296.8 23.5005 293.25 23.5005C290.977 23.5005 289.149 24.0327 287.765 25.0971C286.416 26.126 285.741 27.7049 285.741 29.8337C285.741 31.998 286.416 33.5946 287.765 34.6235C289.114 35.617 290.924 36.1137 293.196 36.1137C296.64 36.1137 299.622 35.2976 302.143 33.6656V40.9035C299.445 42.5356 295.841 43.3517 291.332 43.3517Z" fill="#F5F5F5"/>
<path d="M309.793 6.48303H310.794C310.794 7.16301 310.599 7.67408 310.209 8.01623C309.824 8.35406 309.295 8.52297 308.623 8.52297C308.16 8.52297 307.757 8.41686 307.414 8.20463C307.076 7.99241 306.814 7.6979 306.628 7.32109C306.446 6.94429 306.355 6.50685 306.355 6.00877V5.23567C306.355 4.7376 306.446 4.30016 306.628 3.92335C306.814 3.54655 307.076 3.25204 307.414 3.03981C307.757 2.82759 308.16 2.72148 308.623 2.72148C309.295 2.72148 309.826 2.89256 310.216 3.23471C310.606 3.57254 310.801 4.08144 310.801 4.76142H309.8C309.8 4.34563 309.7 4.04679 309.501 3.86488C309.302 3.68298 309.009 3.59203 308.623 3.59203C308.346 3.59203 308.112 3.66349 307.921 3.80641C307.735 3.94501 307.594 4.13774 307.499 4.38461C307.403 4.62716 307.356 4.90868 307.356 5.22918V6.00877C307.356 6.32927 307.403 6.61296 307.499 6.85983C307.594 7.1067 307.735 7.3016 307.921 7.44453C308.112 7.58312 308.346 7.65242 308.623 7.65242C309.009 7.65242 309.299 7.56363 309.494 7.38606C309.694 7.20415 309.793 6.90314 309.793 6.48303ZM304.885 5.61897C304.885 6.19068 304.983 6.7234 305.178 7.21715C305.377 7.71089 305.653 8.14183 306.004 8.50998C306.355 8.87812 306.762 9.16614 307.226 9.37403C307.689 9.57759 308.186 9.67937 308.714 9.67937C309.243 9.67937 309.737 9.57759 310.196 9.37403C310.66 9.16614 311.067 8.87812 311.418 8.50998C311.77 8.14183 312.043 7.71089 312.238 7.21715C312.437 6.7234 312.537 6.19068 312.537 5.61897C312.537 5.04727 312.437 4.51671 312.238 4.0273C312.043 3.53356 311.77 3.10261 311.418 2.73447C311.067 2.36633 310.66 2.08048 310.196 1.87692C309.737 1.67335 309.243 1.57157 308.714 1.57157C308.186 1.57157 307.689 1.67335 307.226 1.87692C306.762 2.08048 306.355 2.36633 306.004 2.73447C305.653 3.10261 305.377 3.53356 305.178 4.0273C304.983 4.51671 304.885 5.04727 304.885 5.61897ZM304.099 5.61897C304.099 4.93033 304.218 4.2915 304.456 3.70247C304.695 3.11344 305.026 2.60021 305.451 2.16277C305.876 1.721 306.365 1.37884 306.92 1.1363C307.479 0.889427 308.077 0.765991 308.714 0.765991C309.351 0.765991 309.947 0.889427 310.502 1.1363C311.061 1.37884 311.551 1.721 311.971 2.16277C312.396 2.60021 312.727 3.11344 312.966 3.70247C313.208 4.2915 313.33 4.93033 313.33 5.61897C313.33 6.30762 313.208 6.94645 312.966 7.53548C312.727 8.12451 312.396 8.63991 311.971 9.08168C311.551 9.52345 311.061 9.86777 310.502 10.1146C309.947 10.3615 309.351 10.485 308.714 10.485C308.077 10.485 307.479 10.3615 306.92 10.1146C306.365 9.86777 305.876 9.52345 305.451 9.08168C305.026 8.63991 304.695 8.12451 304.456 7.53548C304.218 6.94645 304.099 6.30762 304.099 5.61897Z" fill="#F5F5F5"/>
<path d="M0.669922 30.2227V23.4218L24.2827 11.8119L21.5973 21.9645L13.4441 26.8223L21.5973 31.7286L24.2827 41.8812L0.669922 30.2227Z" fill="#F5F5F5"/>
<path d="M32.2027 31.7286L40.0085 26.8223L32.2027 21.9645L29.2182 11.8119L52.831 23.4218V30.2227L29.2182 41.8812L32.2027 31.7286Z" fill="#F5F5F5"/>
</svg>
